<svg xmlns="http://www.w3.org/2000/svg" version="1.1" xmlns:xlink="http://www.w3.org/1999/xlink" xmlns:svgjs="http://svgjs.dev/svgjs" width="1000" height="126" viewBox="0 0 1000 126"><g transform="matrix(1,0,0,1,-0.6060606060606801,0.08719623685348665)"><svg viewBox="0 0 396 50" data-background-color="#ffffff" preserveAspectRatio="xMidYMid meet" height="126" width="1000" xmlns="http://www.w3.org/2000/svg" xmlns:xlink="http://www.w3.org/1999/xlink"><g id="tight-bounds" transform="matrix(1,0,0,1,0.24000000000003752,-0.03460168129106478)"><svg viewBox="0 0 395.5199999999999 50.06920336258216" height="50.06920336258216" width="395.5199999999999"><g><svg viewBox="0 0 455.7035889672035 57.68789358074804" height="50.06920336258216" width="395.5199999999999"><g transform="matrix(1,0,0,1,0,7.97278413453175)"><svg viewBox="0 0 395.52000000000004 41.74232531168454" height="41.74232531168454" width="395.52000000000004"><g><svg viewBox="0 0 395.52000000000004 41.74232531168454" height="41.74232531168454" width="395.52000000000004"><g><svg viewBox="0 0 395.52000000000004 41.74232531168454" height="41.74232531168454" width="395.52000000000004"><g transform="matrix(1,0,0,1,0,0)"><svg width="395.52000000000004" viewBox="0.699999988079071 -35.900001525878906 344.8799743652344 36.400001525878906" height="41.74232531168454" data-palette-color="#2a160c"><path d="M21.1 0L11.2 0 2.2-27.45 0.7-32.4 0.7-35.4 8.15-35.4 15.4-8.6 16.4-8.6 21.7-35.4 31.8-35.4 36-14.95 37-8.6 38-8.6 45.2-35.4 52.6-35.4 52.6-32.4 51.1-27.45 42.2 0 32.3 0 27.1-27.6 26.05-27.6 25-20.45 21.1 0ZM69.45 0.5L69.45 0.5Q66.65 0.5 63.97-0.28 61.3-1.05 59.15-3.05 57-5.05 55.75-8.6 54.5-12.15 54.5-17.7L54.5-17.7Q54.5-23.25 55.75-26.8 57-30.35 59.15-32.35 61.3-34.35 63.97-35.13 66.65-35.9 69.45-35.9L69.45-35.9Q72.4-35.9 75.07-35.1 77.75-34.3 79.85-32.3 81.95-30.3 83.17-26.75 84.4-23.2 84.4-17.7L84.4-17.7Q84.4-12.2 83.17-8.65 81.95-5.1 79.85-3.1 77.75-1.1 75.07-0.3 72.4 0.5 69.45 0.5ZM69.45-6.5L69.45-6.5Q72.6-6.5 74.2-7.83 75.8-9.15 76.37-11.68 76.95-14.2 76.95-17.7L76.95-17.7Q76.95-21.25 76.37-23.75 75.8-26.25 74.2-27.58 72.6-28.9 69.45-28.9L69.45-28.9Q66.35-28.9 64.72-27.55 63.1-26.2 62.55-23.7 62-21.2 62-17.7L62-17.7Q62-14.25 62.55-11.73 63.1-9.2 64.72-7.85 66.35-6.5 69.45-6.5ZM97.6 0L90.6 0 90.6-27.35 89.6-32.4 90.6-35.4 102.6-35.4Q106.25-35.4 109.17-34.27 112.1-33.15 113.82-30.48 115.55-27.8 115.55-23.1L115.55-23.1Q115.55-18.65 113.87-16 112.2-13.35 109.25-12.05L109.25-12.05 110.7-10.75 115.15-5.55 118-3 118 0 108.75 0 101.75-10.65 97.6-10.65 97.6-8.05 98.1-3.05 97.6 0ZM97.1-28.9L97.6-17 102.5-17Q105.8-17 107-18.73 108.2-20.45 108.2-23.1L108.2-23.1Q108.2-25.9 106.92-27.4 105.65-28.9 102.3-28.9L102.3-28.9 97.1-28.9ZM133.39 0L122.49 0 122.49-27.35 121.49-32.35 122.49-35.4 133.39-35.4Q136.99-35.4 140.32-34.73 143.64-34.05 146.27-32.2 148.89-30.35 150.42-26.9 151.94-23.45 151.94-17.95L151.94-17.95Q151.94-12.45 150.39-8.93 148.84-5.4 146.19-3.45 143.54-1.5 140.22-0.75 136.89 0 133.39 0L133.39 0ZM129.59-28.9L129.59-6.5 134.89-6.5Q140.09-6.5 142.29-9.58 144.49-12.65 144.49-17.95L144.49-17.95Q144.49-23.25 142.27-26.08 140.04-28.9 134.89-28.9L134.89-28.9 129.59-28.9ZM167.44 0.5L167.44 0.5Q163.59 0.5 160.89-0.53 158.19-1.55 156.84-2.7L156.84-2.7 156.84-9.6Q158.59-8.6 161.52-7.5 164.44-6.4 167.99-6.4L167.99-6.4Q170.29-6.4 171.42-7.3 172.54-8.2 172.54-9.75L172.54-9.75Q172.54-11.15 171.64-12.05 170.74-12.95 168.94-13.7 167.14-14.45 164.34-15.45L164.34-15.45Q160.34-16.9 158.14-19.2 155.94-21.5 155.94-25.4L155.94-25.4Q155.94-28.15 157.17-30.55 158.39-32.95 161.02-34.43 163.64-35.9 167.74-35.9L167.74-35.9Q169.34-35.9 170.92-35.77 172.49-35.65 173.59-35.45L173.59-35.45 179.24-31.3 176.74-26.2 167.59-29.45Q165.79-29.45 164.62-28.58 163.44-27.7 163.44-26.1L163.44-26.1Q163.44-24.1 165.12-23.05 166.79-22 169.84-21L169.84-21Q175.64-19.1 177.99-16.43 180.34-13.75 180.34-10.15L180.34-10.15Q180.34-7.25 179.14-4.83 177.94-2.4 175.12-0.95 172.29 0.5 167.44 0.5ZM209.84 0L185.94 0 184.94-3 185.94-8 185.94-35.4 208.64-35.4 211.14-33.9 208.34-28.4 203.34-28.9 192.84-28.9 192.84-21.15 206.34-21.15 206.34-14.9 201.44-14.9 192.84-15.4 192.84-6.5 208.84-6.5 212.79-3.2 209.84 0ZM220.59 0L213.29 0 216.19-9.45 216.19-14.3 219.39-15.8 225.89-35.35 235.74-35.35 243.79-12.95 247.64-5.85 247.64 0 240.79 0 237.79-9 223.24-9 220.59 0ZM230.19-28.75L226.04-15.2 235.54-15.2 231.24-28.75 230.19-28.75ZM259.13 0L252.13 0 252.13-27.35 251.13-32.4 252.13-35.4 264.13-35.4Q267.78-35.4 270.71-34.27 273.63-33.15 275.36-30.48 277.08-27.8 277.08-23.1L277.08-23.1Q277.08-18.65 275.41-16 273.73-13.35 270.78-12.05L270.78-12.05 272.23-10.75 276.68-5.55 279.53-3 279.53 0 270.28 0 263.28-10.65 259.13-10.65 259.13-8.05 259.63-3.05 259.13 0ZM258.63-28.9L259.13-17 264.03-17Q267.33-17 268.53-18.73 269.73-20.45 269.73-23.1L269.73-23.1Q269.73-25.9 268.46-27.4 267.18-28.9 263.83-28.9L263.83-28.9 258.63-28.9ZM298.78 0.5L298.78 0.5Q295.83 0.5 292.86-0.35 289.88-1.2 287.41-3.23 284.93-5.25 283.43-8.78 281.93-12.3 281.93-17.7L281.93-17.7Q281.93-23.15 284.06-27.23 286.18-31.3 289.88-33.6 293.58-35.9 298.28-35.9L298.28-35.9Q300.53-35.9 302.61-35.5 304.68-35.1 305.78-34.6L305.78-34.6 311.33-29.55 307.83-24.3 299.28-28.7Q296.48-28.7 294.23-27.35 291.98-26 290.66-23.53 289.33-21.05 289.33-17.7L289.33-17.7Q289.33-13.85 290.71-11.35 292.08-8.85 294.48-7.63 296.88-6.4 299.83-6.4L299.83-6.4Q302.83-6.4 304.98-6.93 307.13-7.45 308.58-8.13 310.03-8.8 310.78-9.3L310.78-9.3 310.78-2.5Q309.38-1.55 306.5-0.53 303.63 0.5 298.78 0.5ZM324.13 0L316.63 0 316.63-27.35 316.13-32.35 316.63-35.4 323.63-35.4 323.63-20.8 338.08-20.8 338.08-35.4 345.08-35.4 345.08-16.6 345.58-13.15 345.58 0 338.08 0 338.08-14.25 323.63-14.25 323.63-10.2 324.13 0Z" opacity="1" transform="matrix(1,0,0,1,0,0)" fill="#2a160c" class="undefined-text-0" data-fill-palette-color="primary" id="text-0"></path></svg></g></svg></g></svg></g></svg></g><g transform="matrix(1,0,0,1,405.37436119028126,0)"><svg viewBox="0 0 50.3292277769222 57.68789358074804" height="57.68789358074804" width="50.3292277769222"><g><svg xmlns="http://www.w3.org/2000/svg" xmlns:xlink="http://www.w3.org/1999/xlink" version="1.1" x="0" y="0" viewBox="0 0 87.24400329589844 100" enable-background="new 0 0 87.244 100" xml:space="preserve" width="50.3292277769222" height="57.68789358074804" class="icon-icon-0" data-fill-palette-color="accent" id="icon-0"><polygon points="87.244,75.563 87.244,26.69 49.635,48.405 44.923,51.126 44.924,100 " fill="#99592a" data-fill-palette-color="accent"></polygon><polygon points="43.622,0 1.301,24.436 18.306,34.255 60.626,9.819 " fill="#99592a" data-fill-palette-color="accent"></polygon><polygon points="66.921,13.453 24.599,37.89 27.79,39.731 43.622,48.873 59.367,39.781 85.942,24.436 " fill="#99592a" data-fill-palette-color="accent"></polygon><polygon points="22.939,53.75 22.52,52.801 22.1,53.356 21.785,52.437 21.231,52.923 20.965,52.002 20.392,52.395 20.066,51.446   19.568,51.932 19.239,50.892 18.767,51.527 18.535,50.525 18.007,51.189 17.68,50.196 17.303,50.796 17.1,49.982 17.1,36.562   0.001,26.69 0,75.563 42.32,100 42.321,51.126 23.25,40.114 23.25,53.167 " fill="#99592a" data-fill-palette-color="accent"></polygon></svg></g></svg></g></svg></g><defs></defs></svg><rect width="395.5199999999999" height="50.06920336258216" fill="none" stroke="none" visibility="hidden"></rect></g></svg></g></svg>